<svg version="1.0" xmlns="http://www.w3.org/2000/svg"
 width="5000.000000pt" height="4084.000000pt" viewBox="0 0 5000.000000 4084.000000"
 preserveAspectRatio="xMidYMid meet">

<g transform="translate(0.000000,4084.000000) scale(0.100000,-0.100000)"
fill="#000000" stroke="none">
<path d="M13640 31974 l0 -616 68 6 c131 11 1981 80 1988 74 3 -4 -98 -2539
-225 -5635 -128 -3095 -270 -6555 -316 -7688 -86 -2099 -95 -2281 -121 -2535
-72 -706 -237 -1263 -463 -1569 -188 -253 -529 -431 -971 -505 -111 -19 -381
-46 -457 -46 l-53 0 0 -475 0 -475 2740 0 2740 0 0 630 0 630 -42 0 c-24 0
-218 -9 -433 -20 -1242 -66 -1670 -87 -1673 -85 -2 2 6 104 17 227 33 354 50
676 66 1213 9 275 20 624 25 775 5 151 14 574 20 940 24 1485 91 4163 185
7400 35 1198 93 3143 105 3510 5 168 14 521 20 785 5 264 13 558 16 653 l6
173 193 -513 c1257 -3346 2175 -5507 5265 -12403 296 -660 804 -1796 1130
-2525 326 -729 628 -1404 671 -1500 l78 -175 423 -2 c233 -2 428 1 433 5 6 4
131 304 277 667 239 590 688 1700 2081 5140 234 578 689 1703 1012 2500 820
2025 1290 3187 2247 5550 457 1128 870 2156 918 2285 49 129 116 298 150 375
34 77 80 184 103 237 22 54 42 96 44 94 3 -3 132 -2090 558 -9041 96 -1573
184 -2997 195 -3165 80 -1246 -16 -2086 -300 -2628 -76 -145 -137 -230 -235
-327 -269 -270 -682 -419 -1247 -451 l-118 -7 0 -473 0 -474 3215 0 3215 0 0
630 0 630 -60 0 c-53 0 -1040 -39 -1774 -70 -137 -6 -250 -9 -252 -8 -1 2 -5
167 -9 368 -8 511 -23 959 -40 1205 -8 116 -71 1189 -140 2385 -402 6995 -626
10921 -640 11187 -41 812 63 1512 291 1967 197 391 527 652 969 766 202 52
426 80 641 80 l94 0 0 470 0 470 -2122 0 -2123 -1 -348 -872 c-360 -902 -429
-1073 -812 -2007 -420 -1025 -1052 -2535 -1580 -3775 -1238 -2908 -1727 -4101
-2949 -7192 -836 -2116 -1066 -2695 -1078 -2716 -6 -12 -18 -17 -34 -15 -23 3
-43 43 -215 433 -712 1610 -1843 4230 -2869 6645 -111 261 -243 572 -295 690
-230 530 -3601 8314 -3733 8620 l-79 185 -2197 3 -2196 2 0 -616z"/>
<path d="M19557 9428 c-589 -39 -1011 -348 -1104 -807 -9 -46 -15 -129 -15
-211 0 -245 59 -402 211 -562 197 -209 436 -339 941 -513 474 -163 709 -287
890 -466 60 -60 87 -96 119 -160 103 -211 89 -498 -36 -681 -95 -142 -273
-238 -537 -290 -145 -29 -465 -31 -620 -4 -265 45 -488 171 -605 341 -79 114
-117 216 -146 398 l-6 37 -182 -2 -182 -3 3 -55 c2 -30 10 -83 18 -117 103
-458 533 -768 1174 -848 684 -84 1303 155 1528 590 177 342 154 782 -54 1042
-103 128 -213 227 -353 318 -124 80 -405 210 -606 280 -604 209 -872 342
-1038 511 -90 92 -138 255 -117 400 38 277 246 464 601 541 119 25 429 25 547
0 349 -77 550 -248 609 -521 l17 -76 183 0 c213 0 199 -11 157 122 -45 141
-103 237 -218 357 -262 272 -695 411 -1179 379z"/>
<path d="M22983 9428 c-606 -38 -1032 -360 -1114 -844 -17 -105 -7 -329 21
-424 39 -136 93 -224 205 -336 198 -199 443 -328 950 -501 443 -151 679 -276
855 -453 129 -129 176 -238 187 -435 14 -251 -86 -458 -272 -567 -210 -122
-500 -175 -825 -150 -179 14 -306 42 -429 95 -269 117 -425 317 -473 608 l-14
84 -184 0 -184 0 3 -50 c3 -60 23 -149 50 -228 153 -444 666 -734 1336 -754
811 -24 1369 343 1445 951 23 176 0 370 -59 516 -42 102 -95 175 -221 301
-216 217 -429 330 -985 525 -466 163 -730 297 -881 448 -96 96 -134 192 -134
338 0 212 91 370 282 492 156 99 350 146 603 146 329 0 605 -105 753 -285 52
-64 101 -168 122 -260 l17 -70 186 -3 c103 -1 187 -1 187 2 0 2 -11 43 -26 92
-145 502 -704 806 -1401 762z"/>
<path d="M27100 9429 c-432 -23 -759 -136 -1099 -382 -100 -72 -270 -233 -351
-332 -272 -334 -431 -760 -447 -1196 -9 -236 23 -446 107 -699 147 -449 444
-818 860 -1068 315 -190 592 -266 1015 -279 426 -13 757 59 1116 243 399 204
714 538 901 956 175 392 223 772 142 1138 -135 613 -489 1081 -1044 1383 -332
180 -738 260 -1200 236z m420 -259 c141 -23 272 -65 407 -130 293 -140 559
-405 717 -714 225 -440 268 -993 115 -1475 -40 -125 -141 -333 -217 -446 -308
-461 -828 -725 -1362 -690 -280 18 -504 94 -735 248 -117 78 -311 272 -391
392 -165 244 -265 518 -305 835 -15 123 -15 419 0 535 92 698 506 1232 1091
1407 199 59 467 74 680 38z"/>
<path d="M10870 7455 l0 -1915 120 0 120 0 0 1561 c0 1131 3 1560 11 1557 6
-2 390 -719 854 -1593 l843 -1590 52 0 52 0 862 1579 c475 869 868 1582 874
1584 9 3 12 -379 12 -1547 l0 -1551 250 0 250 0 0 1915 0 1915 -191 -2 -190
-3 -588 -1090 c-1111 -2062 -1183 -2195 -1194 -2195 -11 0 -213 374 -1360
2523 l-410 767 -183 0 -184 0 0 -1915z"/>
<path d="M16700 7455 l0 -1915 250 0 250 0 0 1915 0 1915 -250 0 -250 0 0
-1915z"/>
<path d="M30103 8058 c3 -1177 5 -1325 20 -1426 52 -340 148 -551 337 -741
226 -228 522 -359 900 -400 366 -40 681 -16 925 69 445 156 737 495 846 980
l24 105 3 1363 2 1362 -119 0 -120 0 -3 -1337 c-4 -1479 0 -1380 -69 -1587
-56 -170 -140 -299 -278 -429 -210 -198 -460 -289 -832 -304 -338 -13 -592 81
-838 313 -139 130 -213 252 -274 449 l-22 70 -5 1410 -5 1410 -248 3 -248 2 4
-1312z"/>
<path d="M34260 7455 l0 -1915 250 0 250 0 0 846 0 847 208 -6 c413 -11 457
-42 801 -557 267 -399 535 -793 578 -850 53 -70 163 -178 220 -216 132 -88
247 -124 419 -131 139 -6 265 8 337 39 l47 20 0 102 0 101 -89 -3 c-114 -5
-182 10 -283 60 -94 47 -200 145 -289 268 -98 134 -353 511 -464 685 -261 410
-329 496 -429 550 -31 17 -56 35 -56 41 0 7 27 14 63 18 92 10 259 53 335 87
92 42 219 128 290 198 286 282 376 737 218 1103 -92 213 -234 363 -447 473
-165 85 -315 126 -529 145 -63 5 -411 10 -772 10 l-658 0 0 -1915z m1295 1647
c299 -66 512 -233 610 -479 168 -417 -58 -918 -487 -1083 -144 -56 -186 -60
-569 -60 l-349 0 0 826 0 826 353 -5 c303 -4 364 -8 442 -25z"/>
<path d="M38410 7455 l0 -1915 250 0 250 0 0 1915 0 1915 -250 0 -250 0 0
-1915z"/>
</g>
</svg>